<svg xmlns="http://www.w3.org/2000/svg" width="32" height="32" viewBox="0 0 32 32">
  <rect width="32" height="32" rx="6" fill="#000000"/>
  <g transform="translate(3, 9.5) scale(0.213)">
    <g fill="#ffffff">
      <path d="M34.879,3.7C33.008.708,29.8.125,27.629.072,25.72.025,17.44.016,12.617.013,3.123.006,8.552.01,0,.01V4.817c10.155,0,22.207-.025,27.484.06A3.654,3.654,0,0,1,30.1,5.69a2.444,2.444,0,0,1,.626,2.558c-.5,1.434-1.873,1.79-3.241,1.813-2.092.034-7.838.047-12.126.053C4.843,10.127,9.4,10.12,0,10.12v4.792c10.148,0,22.227-.021,27.484.06,1.64.025,3.372.63,3.372,2.566s-1.732,2.571-3.372,2.6c-5.244.082-17.329.06-27.484.06V25c10.186,0,23.517.038,27.629-.062,2.17-.054,5.38-.636,7.25-3.627A7.172,7.172,0,0,0,33.9,12.5,7.167,7.167,0,0,0,34.879,3.7"/>
      <path d="M347.793,2.893A15.024,15.024,0,0,0,338.6.136c-2.689-.066-6.744-.1-10.33-.112C319.525-.013,324.782,0,316.452,0V4.825c8.864,0,15.08-.078,21.925.127a10.278,10.278,0,0,1,6.108,1.712,7.3,7.3,0,0,1,.03,11.673,10.272,10.272,0,0,1-6.107,1.712c-6.845.2-13.06.127-21.925.127l-.03,4.818c8.917,0,15.326.035,22.146-.132a15.025,15.025,0,0,0,9.194-2.757,12.134,12.134,0,0,0,0-19.211" transform="translate(-230.013 0)"/>
      <path d="M159.974,10.8c-2.375-.048-3.131-.87-3.148-3.378-.016-2.316-.005-5.062-.005-7.414h-5.236c0,2.378-.043,7.192.045,9.518.171,4.521,1.572,5.929,5.93,6.086,3.022.109,5.422.071,9.6.069V10.843c-3.349,0-4.713.01-7.187-.038" transform="translate(-110.171 -0.009)"/>
      <path d="M233.439,7.514c-.017,2.441-.767,3.242-3.147,3.29-1.136.023-4.12.035-6.575.041v0h-.023c-2.509,0-5.184,0-6.754,0V25h6.155V15.685h.622v.006c3.2,0,7.2-.016,8.715-.065,4.625-.149,6.036-1.532,6.2-6.1.023-.61.037-1.381.045-2.228V.012h-5.235c0,2.412.01,5.119-.006,7.5" transform="translate(-157.682 -0.008)"/>
    </g>
  </g>
</svg>
